# This file uses centimeters as units for non-parametric coordinates.

mtllib stage1_end.mtl
g default
v -522.438153 3199.707641 -26269.061618
v 522.438153 3199.707641 -26269.061618
v -522.438153 3369.707641 -26269.061618
v 522.438153 3369.707641 -26269.061618
v -522.438153 3369.707641 -26439.061618
v 522.438153 3369.707641 -26439.061618
v -522.438153 3199.707641 -26439.061618
v 522.438153 3199.707641 -26439.061618
v -522.438153 3369.707641 -28474.376865
v 522.438153 3369.707641 -28474.376865
v 522.438153 3199.707641 -28474.376865
v -522.438153 3199.707641 -28474.376865
v -766.564377 3369.707641 -26439.061618
v -766.564377 3199.707641 -26439.061618
v -766.564377 3369.707641 -28474.376865
v -766.564377 3199.707641 -28474.376865
v -522.438153 3892.966518 -26439.061618
v -522.438153 3892.966518 -28474.376865
v -766.564377 3892.966518 -28474.376865
v -766.564377 3892.966518 -26439.061618
vt 0.447211 0.100878
vt 0.245825 0.248949
vt 0.215645 0.241149
vt 0.002631 0.488995
vt 0.224461 0.321233
vt 0.032748 0.518069
vt 0.413101 0.871314
vt 0.579979 0.701594
vt 0.608346 0.675353
vt 0.795979 0.515552
vt 0.564296 0.027962
vt 0.258286 0.291170
vt 0.525681 0.092058
vt 0.034884 0.586416
vt 0.864860 0.458442
vt 0.827691 0.471296
vt 0.037098 0.651310
vt 0.315330 0.959600
vt 0.971469 0.386959
vt 0.034884 0.586416
vt 0.670120 0.000000
vt 0.000000 0.696963
vt 0.364062 1.000000
vt 0.264436 0.993584
vt 0.566187 0.077926
vt 0.433682 0.922062
vt 0.843328 0.520717
vt 0.189392 1.000001
vt 0.472628 0.129271
vt 0.497943 0.087888
vt 0.582612 0.047994
vt 0.189392 1.000001
vt 1.000000 1.000001
vt 1.000000 1.000001
vt 0.208982 0.275993
vt 0.224431 0.212040
vt 0.189555 0.297742
vt 0.427457 0.064682
vt 0.458814 0.068109
vn 0.000000 0.000000 1.000000
vn 0.000000 0.000000 1.000000
vn 0.000000 0.000000 1.000000
vn 0.000000 0.000000 1.000000
vn 0.000000 1.000000 0.000000
vn 0.000000 1.000000 0.000000
vn 0.000000 1.000000 0.000000
vn 0.000000 1.000000 0.000000
vn 0.000000 0.000000 -1.000000
vn 0.000000 0.000000 -1.000000
vn 0.000000 0.000000 -1.000000
vn 0.000000 0.000000 -1.000000
vn 0.000000 -1.000000 0.000000
vn 0.000000 -1.000000 0.000000
vn 0.000000 -1.000000 0.000000
vn 0.000000 -1.000000 0.000000
vn 1.000000 0.000000 0.000000
vn 1.000000 0.000000 0.000000
vn 1.000000 0.000000 0.000000
vn 1.000000 0.000000 0.000000
vn -1.000000 0.000000 0.000000
vn -1.000000 0.000000 0.000000
vn -1.000000 0.000000 0.000000
vn -1.000000 0.000000 0.000000
vn 0.000000 1.000000 0.000000
vn 0.000000 1.000000 0.000000
vn 1.000000 0.000000 0.000000
vn 1.000000 0.000000 0.000000
vn 0.000000 -1.000000 0.000000
vn 0.000000 -1.000000 0.000000
vn -1.000000 0.000000 0.000000
vn -1.000000 0.000000 0.000000
vn -1.000000 0.000000 0.000000
vn -1.000000 0.000000 0.000000
vn 0.000000 0.000000 1.000000
vn 0.000000 0.000000 1.000000
vn 0.000000 0.000000 1.000000
vn 0.000000 0.000000 1.000000
vn 0.000000 1.000000 0.000000
vn 0.000000 1.000000 0.000000
vn 0.000000 1.000000 0.000000
vn 0.000000 1.000000 0.000000
vn 0.000000 0.000000 -1.000000
vn 0.000000 0.000000 -1.000000
vn 0.000000 -1.000000 0.000000
vn 0.000000 -1.000000 0.000000
vn 1.000000 0.000000 0.000000
vn 1.000000 0.000000 0.000000
vn 1.000000 0.000000 0.000000
vn 1.000000 0.000000 0.000000
vn 0.000000 0.000000 -1.000000
vn 0.000000 0.000000 -1.000000
vn -1.000000 0.000000 0.000000
vn -1.000000 0.000000 0.000000
vn 0.000000 0.000000 1.000000
vn 0.000000 0.000000 1.000000
s off
g Finishing_platform Level_1_Structures
usemtl initialShadingGroup
f 1/1/1 2/2/2 4/36/3 3/38/4
s 1
f 3/4/5 4/37/6 6/5/7 5/6/8
s 2
f 9/28/9 10/34/10 11/33/11 12/32/12
s 3
f 7/29/13 8/12/14 2/2/15 1/1/16
s 4
f 2/2/17 8/12/18 6/35/19 4/3/20
s off
f 7/29/21 1/1/22 3/39/23 5/30/24
s 1
f 5/6/8 6/5/7 10/8/25 9/7/26
s 4
f 6/5/19 8/12/18 11/9/27 10/8/28
s 3
f 8/12/14 7/29/13 12/10/29 11/9/30
s 5
f 14/13/31 13/25/32 15/15/33 16/16/34
s 6
f 7/11/35 5/31/36 13/25/37 14/13/38
s off
f 17/17/39 18/18/40 19/24/41 20/22/42
s 2
f 9/27/9 12/10/12 16/16/43 15/15/44
s 3
f 12/10/29 7/29/13 14/13/45 16/16/46
s off
f 5/6/47 9/7/48 18/18/49 17/17/50
s 2
f 9/7/9 15/26/44 19/23/51 18/18/52
s 5
f 15/15/33 13/25/32 20/21/53 19/19/54
s 6
f 13/14/37 5/6/36 17/17/55 20/20/56
