# This file uses centimeters as units for non-parametric coordinates.

mtllib stage1_platform1.mtl
g default
v -646.394375 -251.000000 4909.542480
v 646.394375 -251.000000 4909.542480
v -646.394375 -81.000000 4909.542480
v 646.394375 -81.000000 4909.542480
v -646.394375 -81.000000 4739.542480
v 646.394375 -81.000000 4739.542480
v -646.394375 -251.000000 4739.542480
v 646.394375 -251.000000 4739.542480
v -646.394375 -251.000000 6698.395996
v 646.394375 -251.000000 6698.395996
v 646.394375 -81.000000 6698.395996
v -646.394375 -81.000000 6698.395996
vt 0.072997 0.450604
vt 0.406782 0.512997
vt 0.367676 0.510291
vt 0.070291 0.489709
vt 0.041812 0.901207
vt 0.339198 0.921788
vt 0.336492 0.960894
vt 0.039106 0.940313
vt 0.375597 0.963601
vt 0.104182 0.000000
vt 0.378304 0.924495
vt 0.101475 0.039106
vt 0.031185 0.487003
vt 0.370383 0.471185
vt 0.398861 0.059687
vt 0.002706 0.898501
vt 0.333785 1.000000
vt 0.401568 0.020581
vt 0.036399 0.979419
vt 0.000000 0.937607
vn 0.000000 0.000000 1.000000
vn 0.000000 0.000000 1.000000
vn 0.000000 0.000000 1.000000
vn 0.000000 0.000000 1.000000
vn 0.000000 1.000000 0.000000
vn 0.000000 1.000000 0.000000
vn 0.000000 1.000000 0.000000
vn 0.000000 1.000000 0.000000
vn 0.000000 0.000000 -1.000000
vn 0.000000 0.000000 -1.000000
vn 0.000000 0.000000 -1.000000
vn 0.000000 0.000000 -1.000000
vn 0.000000 -1.000000 0.000000
vn 0.000000 -1.000000 0.000000
vn 0.000000 -1.000000 0.000000
vn 0.000000 -1.000000 0.000000
vn 1.000000 0.000000 0.000000
vn 1.000000 0.000000 0.000000
vn 1.000000 0.000000 0.000000
vn 1.000000 0.000000 0.000000
vn -1.000000 0.000000 0.000000
vn -1.000000 0.000000 0.000000
vn -1.000000 0.000000 0.000000
vn -1.000000 0.000000 0.000000
vn 0.000000 -1.000000 0.000000
vn 0.000000 -1.000000 0.000000
vn 1.000000 0.000000 0.000000
vn 1.000000 0.000000 0.000000
vn 0.000000 1.000000 0.000000
vn 0.000000 1.000000 0.000000
vn -1.000000 0.000000 0.000000
vn -1.000000 0.000000 0.000000
s off
g Start_platform Level_1_Structures
usemtl aiStandardSurface5SG
f 9/1/1 10/14/2 11/3/3 12/4/4
s 1
f 3/5/5 4/6/6 6/7/7 5/8/8
s off
f 5/8/9 6/7/10 8/17/11 7/19/12
s 2
f 7/10/13 8/18/14 2/15/15 1/12/16
s 3
f 2/11/17 8/9/18 6/7/19 4/6/20
s 4
f 7/20/21 1/16/22 3/5/23 5/8/24
s 2
f 1/12/16 2/15/15 10/14/25 9/1/26
s 3
f 2/11/17 4/6/20 11/3/27 10/2/28
s 1
f 4/6/6 3/5/5 12/4/29 11/3/30
s 4
f 3/5/23 1/16/22 9/13/31 12/4/32
